<svg xmlns="http://www.w3.org/2000/svg" version="1.1" xmlns:xlink="http://www.w3.org/1999/xlink" xmlns:svgjs="http://svgjs.dev/svgjs" width="100%" height="100%" viewBox="0 0 1000 600"><rect width="1000" height="600" x="0" y="0" fill="#000000"/><g><rect width="333.3333333333333" height="333.3333333333333" rx="13.333333333333334" ry="13.333333333333334" y="338.01561615678145" fill="#ff69b4" transform="matrix(0.3958284410448571,0,0,0.39582844104485704,0,100.23240205158928)" x="315.7933654785156"/><path d="M463.0877458072181 573.2428759410742L463.0877458072181 573.2428759410742L463.0877458072181 446.2407170316922L461.13969394495234 446.2407170316922Q454.889694220183 446.2407170316922 453.34748649588926 447.99937496290437Q451.7782224957307 449.7580328941165 450.01956456451853 456.7656083431003L450.01956456451853 456.7656083431003L424.50549642401 557.8749112498665Q423.53147049287713 562.3391967675589 416.90268290600056 562.3391967675589Q410.3009515949888 562.3391967675589 409.32692566385595 557.8749112498665L409.32692566385595 557.8749112498665L383.78580124748254 456.7656083431003Q382.0541995921352 449.7580328941165 380.4849355919767 447.99937496290437Q378.9156715918181 446.2407170316922 372.6927281429136 446.2407170316922L372.6927281429136 446.2407170316922L370.74467628064787 446.2407170316922L370.74467628064787 573.2428759410742Q370.74467628064787 577.7342177346313 362.9524688315848 577.7342177346313Q355.16026138252175 577.7342177346313 355.16026138252175 573.2428759410742L355.16026138252175 573.2428759410742L355.16026138252175 447.2147429628251Q355.16026138252175 438.6379035136828 357.2165383482467 435.63465689268975Q359.2457590381069 432.60435399583184 366.8485725561163 432.60435399583184L366.8485725561163 432.60435399583184L371.1234641427551 432.60435399583184Q384.7598271786154 432.60435399583184 389.5487880066854 435.7158257202841Q394.31069255889065 438.8272974447364 397.2327703522893 451.30024061841027L397.2327703522893 451.30024061841027L416.90268290600056 532.1443929024394L436.59965173557663 451.30024061841027Q439.5217295289753 438.8272974447364 444.2836340811805 435.7158257202841Q449.04553863338566 432.60435399583184 462.68190166924603 432.60435399583184L462.68190166924603 432.60435399583184L466.98384953174957 432.60435399583184Q474.58666304975907 432.60435399583184 476.6158837396192 435.63465689268975Q478.67216070534414 438.6379035136828 478.67216070534414 447.2147429628251L478.67216070534414 447.2147429628251L478.67216070534414 573.2428759410742Q478.67216070534414 577.7342177346313 470.8799532562811 577.7342177346313Q463.0877458072181 577.7342177346313 463.0877458072181 573.2428759410742ZM594.1754023721851 550.8402795250179L594.1754023721851 550.8402795250179L594.1754023721851 531.7656050403323Q594.1754023721851 522.4041335911106 590.9827618201384 518.5080298665791Q587.7630649922271 514.6119261420477 577.4275676118725 514.6119261420477L577.4275676118725 514.6119261420477L562.4383907827721 514.6119261420477Q558.5422870582406 514.6119261420477 558.5422870582406 507.79374462411744Q558.5422870582406 500.9755631061872 562.4383907827721 500.9755631061872L562.4383907827721 500.9755631061872L577.4275676118725 500.9755631061872Q594.5812465101571 500.9755631061872 602.1840600281666 507.9831385551711Q609.7598172703113 515.0177702800197 609.7598172703113 531.7656050403323L609.7598172703113 531.7656050403323L609.7598172703113 548.8922276627521Q609.7598172703113 565.071880629904 597.2057052690429 572.3770751134006Q584.6515932677748 579.6822695968971 563.9805985070658 579.6822695968971L563.9805985070658 579.6822695968971Q519.5812498129253 579.6822695968971 519.5812498129253 548.8922276627521L519.5812498129253 548.8922276627521L519.5812498129253 460.4723181365782Q519.5812498129253 444.29266516942647 531.7565739520862 436.98747068592985Q543.9318980912474 429.68227620243323 563.7912045760122 429.68227620243323L563.7912045760122 429.68227620243323Q606.8377394769127 429.68227620243323 606.8377394769127 460.4723181365782L606.8377394769127 460.4723181365782L606.8377394769127 471.1866033790399Q606.8377394769127 475.65088889673234 599.0455320278495 475.65088889673234Q591.2533245787865 475.65088889673234 591.2533245787865 471.1866033790399L591.2533245787865 471.1866033790399L591.2533245787865 458.5242662743125Q591.2533245787865 443.3186392382936 563.2230227828513 443.3186392382936Q535.1656647110514 443.3186392382936 535.1656647110514 458.5242662743125L535.1656647110514 458.5242662743125L535.1656647110514 550.8402795250179Q535.1656647110514 566.0459065610368 564.6840616795507 566.0459065610368Q594.1754023721851 566.0459065610368 594.1754023721851 550.8402795250179Z " fill="#000000" transform="matrix(0.3958284410448571,0,0,0.39582844104485704,0,100.23240205158928)"/><path d="M831.985986754857 573.7441503160351L831.985986754857 573.7441503160351L831.985986754857 456.62838720339454L830.1895796512971 456.62838720339454Q824.4261068607091 456.62838720339454 823.0039512370575 458.25014361633055Q821.5568455147454 459.8719000292666 819.9350891018094 466.3339755823501L819.9350891018094 466.3339755823501L796.407146064907 559.5724942768404Q795.5089425131271 563.6892605558319 789.3961683412913 563.6892605558319Q783.3083442681161 563.6892605558319 782.4101407163362 559.5724942768404L782.4101407163362 559.5724942768404L758.8572475807732 466.3339755823501Q757.2604412664978 459.8719000292666 755.8133355441855 458.25014361633055Q754.3662298218735 456.62838720339454 748.627707129946 456.62838720339454L748.627707129946 456.62838720339454L746.8313000263861 456.62838720339454L746.8313000263861 573.7441503160351Q746.8313000263861 577.885866693687 739.6456716121465 577.885866693687Q732.460043197907 577.885866693687 732.460043197907 573.7441503160351L732.460043197907 573.7441503160351L732.460043197907 457.5265907551745Q732.460043197907 449.61740947977887 734.3562506961091 446.8479485284574Q736.2275080956507 444.05353747847533 743.2384858192663 444.05353747847533L743.2384858192663 444.05353747847533L747.180601407634 444.05353747847533Q759.7554511325532 444.05353747847533 764.1716185954712 446.92279882443904Q768.5628359597287 449.79206017040275 771.2574466150685 461.2940556529182L771.2574466150685 461.2940556529182L789.3961683412913 535.8449504506536L807.5598401661746 461.2940556529182Q810.2544508215144 449.79206017040275 814.6456681857719 446.92279882443904Q819.0368855500294 444.05353747847533 831.6117352749486 444.05353747847533L831.6117352749486 444.05353747847533L835.5788009619768 444.05353747847533Q842.5897786855925 444.05353747847533 844.461036085134 446.8479485284574Q846.3572435833361 449.61740947977887 846.3572435833361 457.5265907551745L846.3572435833361 457.5265907551745L846.3572435833361 573.7441503160351Q846.3572435833361 577.885866693687 839.1716151690965 577.885866693687Q831.985986754857 577.885866693687 831.985986754857 573.7441503160351ZM900.2494566901328 472.4467497541858L900.2494566901328 472.4467497541858L900.2494566901328 555.9796800697206Q900.2494566901328 561.7182027616481 902.9440673454726 566.6583222964377Q905.6386780008124 571.5984418312274 905.6386780008124 571.7730925218514L905.6386780008124 571.7730925218514Q905.6386780008124 573.9437511053195 902.2205144843165 576.3639106753933Q898.8023509678206 578.784070245467 896.4819917923892 578.784070245467L896.4819917923892 578.784070245467Q892.689576795985 578.784070245467 889.2963633781496 572.2221942977413Q885.8781998616537 565.6603183500156 885.8781998616537 557.7760871732805L885.8781998616537 557.7760871732805L885.8781998616537 472.4467497541858Q885.8781998616537 468.30503337653386 893.0638282758932 468.30503337653386Q900.2494566901328 468.30503337653386 900.2494566901328 472.4467497541858ZM900.7734087620045 434.17329840889596L900.7734087620045 434.17329840889596L900.7734087620045 449.79206017040275Q900.7734087620045 454.28307792930246 892.964027881251 454.28307792930246Q885.1546470004976 454.28307792930246 885.1546470004976 449.79206017040275L885.1546470004976 449.79206017040275L885.1546470004976 434.17329840889596Q885.1546470004976 429.68228064999624 892.964027881251 429.68228064999624Q900.7734087620045 429.68228064999624 900.7734087620045 434.17329840889596ZM952.3452626933696 493.1054314451245L952.3452626933696 493.1054314451245L952.3452626933696 553.0854686250964Q952.3452626933696 567.1074240723277 975.3243035597399 567.1074240723277Q998.3282945247706 567.1074240723277 998.3282945247706 553.0854686250964L998.3282945247706 553.0854686250964L998.3282945247706 545.5505388296091Q998.3282945247706 541.4088224519571 1005.5139229390102 541.4088224519571Q1012.6995513532497 541.4088224519571 1012.6995513532497 545.5505388296091L1012.6995513532497 545.5505388296091L1012.6995513532497 551.2890615215365Q1012.6995513532497 566.2092205205478 1002.5448611984043 572.9457471588973Q992.3901710435587 579.6822737972469 975.424103954382 579.6822737972469Q958.4580368652053 579.6822737972469 948.2035463157176 572.9457471588973Q937.9740058648905 566.2092205205478 937.9740058648905 551.2890615215365L937.9740058648905 551.2890615215365L937.9740058648905 494.9018385486844Q937.9740058648905 479.9816795496731 948.2035463157176 473.24515291132354Q958.4580368652053 466.50862627297397 975.424103954382 466.50862627297397Q992.3901710435587 466.50862627297397 1002.5448611984043 473.24515291132354Q1012.6995513532497 479.9816795496731 1012.6995513532497 494.9018385486844L1012.6995513532497 494.9018385486844L1012.6995513532497 500.6403612406118Q1012.6995513532497 504.7820776182638 1005.5139229390102 504.7820776182638Q998.3282945247706 504.7820776182638 998.3282945247706 500.6403612406118L998.3282945247706 500.6403612406118L998.3282945247706 493.1054314451245Q998.3282945247706 479.0834759978932 975.3243035597399 479.0834759978932Q952.3452626933696 479.0834759978932 952.3452626933696 493.1054314451245ZM1126.4221010480549 494.9018385486844L1126.4221010480549 494.9018385486844L1126.4221010480549 573.7441503160351Q1126.4221010480549 577.885866693687 1119.2364726338153 577.885866693687Q1112.050844219576 577.885866693687 1112.050844219576 573.7441503160351L1112.050844219576 573.7441503160351L1112.050844219576 493.1054314451245Q1112.050844219576 479.0834759978932 1087.5248972362513 479.0834759978932Q1062.9989502529265 479.0834759978932 1062.9989502529265 493.1054314451245L1062.9989502529265 493.1054314451245L1062.9989502529265 573.7441503160351Q1062.9989502529265 577.885866693687 1055.813321838687 577.885866693687Q1048.6276934244474 577.885866693687 1048.6276934244474 573.7441503160351L1048.6276934244474 573.7441503160351L1048.6276934244474 437.416811234768Q1048.6276934244474 433.275094857116 1055.813321838687 433.275094857116Q1062.9989502529265 433.275094857116 1062.9989502529265 437.416811234768L1062.9989502529265 437.416811234768L1062.9989502529265 473.8689053778374Q1072.8791893225061 466.50862627297397 1088.947052859903 466.50862627297397Q1105.0398664959603 466.50862627297397 1115.7185087226771 473.24515291132354Q1126.4221010480549 479.9816795496731 1126.4221010480549 494.9018385486844ZM1211.3771869872414 576.9876631419071L1211.3771869872414 576.9876631419071L1190.3692039150549 576.9876631419071Q1174.5508413642638 576.9876631419071 1167.539863640648 570.5255875888237Q1160.553836015693 564.0635120357401 1160.553836015693 548.5944508661967L1160.553836015693 548.5944508661967L1160.553836015693 547.172295242545Q1160.553836015693 531.902834862286 1166.8412608781525 526.1393620716981Q1173.1286857406121 520.4008393797706 1189.296349672651 518.7790829668346L1189.296349672651 518.7790829668346L1220.3592225050409 515.735170930247L1220.3592225050409 495.80004210046434Q1220.3592225050409 481.778086653233 1195.9330759163586 481.778086653233L1195.9330759163586 481.778086653233L1171.3322786370522 481.778086653233Q1167.7394644299325 481.778086653233 1167.7394644299325 475.4906617907734Q1167.7394644299325 469.2032369283138 1171.3322786370522 469.2032369283138L1171.3322786370522 469.2032369283138L1195.9330759163586 469.2032369283138Q1213.5478455707096 469.2032369283138 1224.1266874027845 475.9397635666634Q1234.73047933352 482.67629020501295 1234.73047933352 497.5964492040242L1234.73047933352 497.5964492040242L1234.73047933352 550.590458759041Q1234.73047933352 562.2671049321802 1238.872195711172 569.0784818665115L1238.872195711172 569.0784818665115Q1240.1197006441996 571.2491404499797 1240.1197006441996 571.7730925218514L1240.1197006441996 571.7730925218514Q1240.1197006441996 573.9437511053195 1236.701537127704 576.3639106753933Q1233.3083237098683 578.784070245467 1230.9630144357761 578.784070245467L1230.9630144357761 578.784070245467Q1227.0208988474087 578.784070245467 1223.6775856268946 571.3239907459614Q1220.3592225050409 563.8639112464557 1220.3592225050409 552.3868658626009L1220.3592225050409 552.3868658626009L1220.3592225050409 528.3100206551662L1190.3692039150549 531.3539326917538Q1180.6636155360993 532.4267869341577 1177.7943541901357 535.6702997600297Q1174.925092844172 538.9138125859017 1174.925092844172 547.172295242545L1174.925092844172 547.172295242545L1174.925092844172 548.5944508661967Q1174.925092844172 557.2271850027483 1177.8692044861173 560.8199992098681Q1180.8382662267234 564.4128134169879 1190.3692039150549 564.4128134169879L1190.3692039150549 564.4128134169879L1211.3771869872414 564.4128134169879Q1214.9700011943612 564.4128134169879 1214.9700011943612 570.7002382794475Q1214.9700011943612 576.9876631419071 1211.3771869872414 576.9876631419071ZM1351.147639683665 494.52758706877614L1351.147639683665 494.52758706877614L1351.147639683665 499.9168083794558Q1351.147639683665 515.1862687597148 1344.8602148212053 520.9497415503029Q1338.5727899587457 526.6882642422303 1321.8562238561744 528.3100206551662L1321.8562238561744 528.3100206551662L1286.8262853367569 531.7281841716622L1286.8262853367569 553.0854686250964Q1286.8262853367569 567.1074240723277 1310.1795776830354 567.1074240723277L1310.1795776830354 567.1074240723277Q1336.7763828551858 567.1074240723277 1336.7763828551858 554.8818757286563L1336.7763828551858 554.8818757286563L1336.7763828551858 548.070498794325Q1336.7763828551858 543.9287824166731 1343.9620112694254 543.9287824166731Q1351.147639683665 543.9287824166731 1351.147639683665 548.070498794325L1351.147639683665 548.070498794325L1351.147639683665 553.0854686250964Q1351.147639683665 579.6822737972469 1311.6266834053474 579.6822737972469L1311.6266834053474 579.6822737972469Q1294.1865644416202 579.6822737972469 1283.333271524279 572.8459467642551Q1272.4550285082776 566.034569829924 1272.4550285082776 551.2890615215365L1272.4550285082776 551.2890615215365L1272.4550285082776 494.9018385486844Q1272.4550285082776 479.9816795496731 1283.957023990793 473.24515291132354Q1295.4590194733084 466.50862627297397 1313.947042580779 466.50862627297397Q1332.46001578691 466.50862627297397 1341.7913526859572 472.97070182605745Q1351.147639683665 479.43277737914093 1351.147639683665 494.52758706877614ZM1286.8262853367569 493.1054314451245L1286.8262853367569 493.1054314451245L1286.8262853367569 519.153334446743L1320.6087189231469 515.735170930247Q1330.838259373974 514.6623166878433 1333.80732111458 511.4188038619712Q1336.7763828551858 508.17529103609917 1336.7763828551858 499.9168083794558L1336.7763828551858 499.9168083794558L1336.7763828551858 493.1054314451245Q1336.7763828551858 479.0834759978932 1311.8013340959715 479.0834759978932Q1286.8262853367569 479.0834759978932 1286.8262853367569 493.1054314451245ZM1403.2434456869019 437.416811234768L1403.2434456869019 437.416811234768L1403.2434456869019 555.9796800697206Q1403.2434456869019 561.7182027616481 1405.9380563422417 566.6583222964377Q1408.6326669975815 571.5984418312274 1408.6326669975815 571.7730925218514L1408.6326669975815 571.7730925218514Q1408.6326669975815 573.9437511053195 1405.2145034810856 576.3639106753933Q1401.7963399645896 578.784070245467 1399.475980789158 578.784070245467L1399.475980789158 578.784070245467Q1395.683565792754 578.784070245467 1392.2903523749185 572.2221942977413Q1388.8721888584228 565.6603183500156 1388.8721888584228 557.7760871732805L1388.8721888584228 557.7760871732805L1388.8721888584228 437.416811234768Q1388.8721888584228 433.275094857116 1396.0578172726623 433.275094857116Q1403.2434456869019 433.275094857116 1403.2434456869019 437.416811234768ZM1576.2224797005229 553.0854686250964L1576.2224797005229 553.0854686250964L1576.2224797005229 535.4956490694058Q1576.2224797005229 526.8629149328541 1573.2783680585776 523.2701007257343Q1570.3093063179715 519.6772865186146 1560.7783686296398 519.6772865186146L1560.7783686296398 519.6772865186146L1546.9560139716928 519.6772865186146Q1543.363199764573 519.6772865186146 1543.363199764573 513.389861656155Q1543.363199764573 507.10243679369535 1546.9560139716928 507.10243679369535L1546.9560139716928 507.10243679369535L1560.7783686296398 507.10243679369535Q1576.596731180431 507.10243679369535 1583.6077089040468 513.5645123467789Q1590.593736529002 520.0515379985229 1590.593736529002 535.4956490694058L1590.593736529002 535.4956490694058L1590.593736529002 551.2890615215365Q1590.593736529002 566.2092205205478 1579.016890750505 572.9457471588973Q1567.4400449720079 579.6822737972469 1548.3781695953444 579.6822737972469L1548.3781695953444 579.6822737972469Q1507.4350576933753 579.6822737972469 1507.4350576933753 551.2890615215365L1507.4350576933753 551.2890615215365L1507.4350576933753 469.752139098846Q1507.4350576933753 454.83198009983465 1518.6626020906247 448.0954534614851Q1529.8901464878738 441.3589268231355 1548.2035189047206 441.3589268231355L1548.2035189047206 441.3589268231355Q1587.899125873662 441.3589268231355 1587.899125873662 469.752139098846L1587.899125873662 469.752139098846L1587.899125873662 479.63237816842536Q1587.899125873662 483.74914444741677 1580.7134974594223 483.74914444741677Q1573.5278690451828 483.74914444741677 1573.5278690451828 479.63237816842536L1573.5278690451828 479.63237816842536L1573.5278690451828 467.9557319952861Q1573.5278690451828 453.9337765480547 1547.679566832849 453.9337765480547Q1521.8063145218543 453.9337765480547 1521.8063145218543 467.9557319952861L1521.8063145218543 467.9557319952861L1521.8063145218543 553.0854686250964Q1521.8063145218543 567.1074240723277 1549.026872160519 567.1074240723277Q1576.2224797005229 567.1074240723277 1576.2224797005229 553.0854686250964ZM1686.3522151882084 553.0854686250964L1686.3522151882084 553.0854686250964L1686.3522151882084 493.1054314451245Q1686.3522151882084 479.0834759978932 1661.8262682048837 479.0834759978932Q1637.300321221559 479.0834759978932 1637.300321221559 493.1054314451245L1637.300321221559 493.1054314451245L1637.300321221559 553.0854686250964Q1637.300321221559 567.1074240723277 1661.8262682048837 567.1074240723277Q1686.3522151882084 567.1074240723277 1686.3522151882084 553.0854686250964ZM1700.7234720166875 494.9018385486844L1700.7234720166875 494.9018385486844L1700.7234720166875 551.2890615215365Q1700.7234720166875 566.2092205205478 1690.119680085952 572.9457471588973Q1679.5158881552165 579.6822737972469 1661.9260685995257 579.6822737972469Q1644.3112989451747 579.6822737972469 1633.6326567184576 572.9457471588973Q1622.92906439308 566.2092205205478 1622.92906439308 551.2890615215365L1622.92906439308 551.2890615215365L1622.92906439308 494.9018385486844Q1622.92906439308 479.9816795496731 1633.5328563238154 473.24515291132354Q1644.136648254551 466.50862627297397 1661.7514179089019 466.50862627297397Q1679.3412374645927 466.50862627297397 1690.0448297899702 473.24515291132354Q1700.7234720166875 479.9816795496731 1700.7234720166875 494.9018385486844ZM1760.0049064341638 448.1952538561273L1760.0049064341638 448.1952538561273L1760.0049064341638 469.2032369283138L1778.8671810215424 469.2032369283138Q1782.4599952286621 469.2032369283138 1782.4599952286621 475.4906617907734Q1782.4599952286621 481.778086653233 1778.8671810215424 481.778086653233L1778.8671810215424 481.778086653233L1760.0049064341638 481.778086653233L1760.0049064341638 555.9796800697206Q1760.0049064341638 561.7182027616481 1762.6995170895034 566.6583222964377Q1765.3941277448434 571.5984418312274 1765.3941277448434 571.7730925218514L1765.3941277448434 571.7730925218514Q1765.3941277448434 573.9437511053195 1761.9759642283475 576.3639106753933Q1758.5578007118515 578.784070245467 1756.2374415364197 578.784070245467L1756.2374415364197 578.784070245467Q1752.4699766386761 578.784070245467 1749.0518131221802 572.2221942977413Q1745.6336496056845 565.6603183500156 1745.6336496056845 557.7760871732805L1745.6336496056845 557.7760871732805L1745.6336496056845 481.778086653233L1731.2623927772054 481.778086653233Q1727.6695785700856 481.778086653233 1727.6695785700856 475.4906617907734Q1727.6695785700856 469.2032369283138 1731.2623927772054 469.2032369283138L1731.2623927772054 469.2032369283138L1745.6336496056845 469.2032369283138L1745.6336496056845 448.1952538561273Q1745.6336496056845 444.05353747847533 1752.8192780199242 444.05353747847533Q1760.0049064341638 444.05353747847533 1760.0049064341638 448.1952538561273ZM1820.1845444034197 493.1054314451245L1820.1845444034197 493.1054314451245L1820.1845444034197 553.0854686250964Q1820.1845444034197 567.1074240723277 1843.1885353684506 567.1074240723277Q1866.167576234821 567.1074240723277 1866.167576234821 553.0854686250964L1866.167576234821 553.0854686250964L1866.167576234821 545.5505388296091Q1866.167576234821 541.4088224519571 1873.3532046490604 541.4088224519571Q1880.5388330633 541.4088224519571 1880.5388330633 545.5505388296091L1880.5388330633 545.5505388296091L1880.5388330633 551.2890615215365Q1880.5388330633 566.2092205205478 1870.3841429084546 572.9457471588973Q1860.2544028522698 579.6822737972469 1843.2633856644325 579.6822737972469Q1826.2973185752558 579.6822737972469 1816.042828025768 572.9457471588973Q1805.8132875749411 566.2092205205478 1805.8132875749411 551.2890615215365L1805.8132875749411 551.2890615215365L1805.8132875749411 494.9018385486844Q1805.8132875749411 479.9816795496731 1816.042828025768 473.24515291132354Q1826.2973185752558 466.50862627297397 1843.2633856644325 466.50862627297397Q1860.2544028522698 466.50862627297397 1870.3841429084546 473.24515291132354Q1880.5388330633 479.9816795496731 1880.5388330633 494.9018385486844L1880.5388330633 494.9018385486844L1880.5388330633 500.6403612406118Q1880.5388330633 504.7820776182638 1873.3532046490604 504.7820776182638Q1866.167576234821 504.7820776182638 1866.167576234821 500.6403612406118L1866.167576234821 500.6403612406118L1866.167576234821 493.1054314451245Q1866.167576234821 479.0834759978932 1843.1885353684506 479.0834759978932Q1820.1845444034197 479.0834759978932 1820.1845444034197 493.1054314451245ZM1994.2613827581054 494.9018385486844L1994.2613827581054 494.9018385486844L1994.2613827581054 573.7441503160351Q1994.2613827581054 577.885866693687 1987.0757543438658 577.885866693687Q1979.8901259296263 577.885866693687 1979.8901259296263 573.7441503160351L1979.8901259296263 573.7441503160351L1979.8901259296263 493.1054314451245Q1979.8901259296263 479.0834759978932 1955.3641789463018 479.0834759978932Q1930.8382319629773 479.0834759978932 1930.8382319629773 493.1054314451245L1930.8382319629773 493.1054314451245L1930.8382319629773 573.7441503160351Q1930.8382319629773 577.885866693687 1923.6526035487377 577.885866693687Q1916.4669751344977 577.885866693687 1916.4669751344977 573.7441503160351L1916.4669751344977 573.7441503160351L1916.4669751344977 437.416811234768Q1916.4669751344977 433.275094857116 1923.6526035487377 433.275094857116Q1930.8382319629773 433.275094857116 1930.8382319629773 437.416811234768L1930.8382319629773 437.416811234768L1930.8382319629773 473.8689053778374Q1940.7184710325564 466.50862627297397 1956.811284668614 466.50862627297397Q1972.8791482060105 466.50862627297397 1983.5577904327279 473.24515291132354Q1994.2613827581054 479.9816795496731 1994.2613827581054 494.9018385486844ZM2110.6535930095897 494.52758706877614L2110.6535930095897 494.52758706877614L2110.6535930095897 499.9168083794558Q2110.6535930095897 515.1862687597148 2104.3661681471303 520.9497415503029Q2098.0787432846705 526.6882642422303 2081.38712728076 528.3100206551662L2081.38712728076 528.3100206551662L2046.357188761342 531.7281841716622L2046.357188761342 553.0854686250964Q2046.357188761342 567.1074240723277 2069.7104811076206 567.1074240723277L2069.7104811076206 567.1074240723277Q2096.2823361811106 567.1074240723277 2096.2823361811106 554.8818757286563L2096.2823361811106 554.8818757286563L2096.2823361811106 548.070498794325Q2096.2823361811106 543.9287824166731 2103.46796459535 543.9287824166731Q2110.6535930095897 543.9287824166731 2110.6535930095897 548.070498794325L2110.6535930095897 548.070498794325L2110.6535930095897 553.0854686250964Q2110.6535930095897 579.6822737972469 2071.132636731272 579.6822737972469L2071.132636731272 579.6822737972469Q2053.7174678662054 579.6822737972469 2042.8392248502041 572.8459467642551Q2031.985931932863 566.034569829924 2031.985931932863 551.2890615215365L2031.985931932863 551.2890615215365L2031.985931932863 494.9018385486844Q2031.985931932863 479.9816795496731 2043.4879274153782 473.24515291132354Q2054.9649727992332 466.50862627297397 2073.477946005364 466.50862627297397Q2091.9909192114956 466.50862627297397 2101.322256110542 472.97070182605745Q2110.6535930095897 479.43277737914093 2110.6535930095897 494.52758706877614ZM2046.357188761342 493.1054314451245L2046.357188761342 493.1054314451245L2046.357188761342 519.153334446743L2080.1146722490716 515.735170930247Q2090.3691627985595 514.6623166878433 2093.3382245391654 511.4188038619712Q2096.2823361811106 508.17529103609917 2096.2823361811106 499.9168083794558L2096.2823361811106 499.9168083794558L2096.2823361811106 493.1054314451245Q2096.2823361811106 479.0834759978932 2071.3322375205566 479.0834759978932Q2046.357188761342 479.0834759978932 2046.357188761342 493.1054314451245ZM2196.182531217969 502.08746696292394L2196.182531217969 502.08746696292394L2196.182531217969 493.1054314451245Q2196.182531217969 479.0834759978932 2179.465965115398 479.0834759978932Q2162.7493990128264 479.0834759978932 2162.7493990128264 493.1054314451245L2162.7493990128264 493.1054314451245L2162.7493990128264 575.540557419595Q2162.7493990128264 579.6822737972469 2155.563770598587 579.6822737972469Q2148.3781421843473 579.6822737972469 2148.3781421843473 575.540557419595L2148.3781421843473 575.540557419595L2148.3781421843473 494.9018385486844Q2148.3781421843473 479.9816795496731 2156.911075926257 473.24515291132354Q2165.4440096681665 466.50862627297397 2179.465965115398 466.50862627297397L2179.465965115398 466.50862627297397Q2210.553788046448 466.50862627297397 2210.553788046448 494.52758706877614L2210.553788046448 494.52758706877614L2210.553788046448 502.08746696292394Q2210.553788046448 506.2042332419154 2203.3681596322085 506.2042332419154Q2196.182531217969 506.2042332419154 2196.182531217969 502.08746696292394Z " fill="#ff69b4" transform="matrix(0.3958284410448571,0,0,0.39582844104485704,0,100.23240205158928)"/></g></svg>